<svg xmlns="http://www.w3.org/2000/svg" xmlns:xlink="http://www.w3.org/1999/xlink" width="38.456mm" height="30.759mm" viewBox="4037.6 3036.4 151.4 121.1"><title></title><style type="text/css">
*[layerid="1"] {stroke:#FF0000;fill:#FF0000;}
*[layerid="2"] {stroke:#0000FF;fill:#0000FF;}
*[layerid="3"] {stroke:#FFCC00;fill:#FFCC00;}
*[layerid="4"] {stroke:#66CC33;fill:#66CC33;}
*[layerid="5"] {stroke:#808080;fill:#808080;}
*[layerid="6"] {stroke:#800000;fill:#800000;}
*[layerid="7"] {stroke:#800080;fill:#800080;stroke-opacity:0.7;fill-opacity:0.7;}
*[layerid="8"] {stroke:#AA00FF;fill:#AA00FF;stroke-opacity:0.7;fill-opacity:0.7;}
*[layerid="9"] {stroke:#6464FF;fill:#6464FF;}
*[layerid="10"] {stroke:#FF00FF;fill:#FF00FF;}
*[layerid="11"] {stroke:#C0C0C0;fill:#C0C0C0;}
*[layerid="12"] {stroke:#FFFFFF;fill:#FFFFFF;}
*[layerid="13"] {stroke:#33CC99;fill:#33CC99;}
*[layerid="14"] {stroke:#5555FF;fill:#5555FF;}
*[layerid="15"] {stroke:#F022F0;fill:#F022F0;}
*[layerid="19"] {stroke:#66CCFF;fill:#66CCFF;}
*[layerid="21"] {stroke:#999966;fill:#999966;}
*[layerid="22"] {stroke:#008000;fill:#008000;}
*[layerid="23"] {stroke:#00FF00;fill:#00FF00;}
*[layerid="24"] {stroke:#BC8E00;fill:#BC8E00;}
*[layerid="25"] {stroke:#70DBFA;fill:#70DBFA;}
*[layerid="26"] {stroke:#00CC66;fill:#00CC66;}
*[layerid="27"] {stroke:#9966FF;fill:#9966FF;}
*[layerid="28"] {stroke:#800080;fill:#800080;}
*[layerid="29"] {stroke:#008080;fill:#008080;}
*[layerid="30"] {stroke:#15935F;fill:#15935F;}
*[layerid="31"] {stroke:#000080;fill:#000080;}
*[layerid="32"] {stroke:#00B400;fill:#00B400;}
*[layerid="33"] {stroke:#2E4756;fill:#2E4756;}
*[layerid="34"] {stroke:#99842F;fill:#99842F;}
*[layerid="35"] {stroke:#FFFFAA;fill:#FFFFAA;}
*[layerid="36"] {stroke:#99842F;fill:#99842F;}
*[layerid="37"] {stroke:#2E4756;fill:#2E4756;}
*[layerid="38"] {stroke:#3535FF;fill:#3535FF;}
*[layerid="39"] {stroke:#8000BC;fill:#8000BC;}
*[layerid="40"] {stroke:#43AE5F;fill:#43AE5F;}
*[layerid="41"] {stroke:#C3ECCE;fill:#C3ECCE;}
*[layerid="42"] {stroke:#728978;fill:#728978;}
*[layerid="43"] {stroke:#39503F;fill:#39503F;}
*[layerid="44"] {stroke:#0C715D;fill:#0C715D;}
*[layerid="45"] {stroke:#5A8A80;fill:#5A8A80;}
*[layerid="46"] {stroke:#2B937E;fill:#2B937E;}
*[layerid="47"] {stroke:#23999D;fill:#23999D;}
*[layerid="48"] {stroke:#45B4E3;fill:#45B4E3;}
*[layerid="49"] {stroke:#215DA1;fill:#215DA1;}
*[layerid="50"] {stroke:#4564D7;fill:#4564D7;}
*[layerid="51"] {stroke:#6969E9;fill:#6969E9;}
*[layerid="52"] {stroke:#9069E9;fill:#9069E9;}
*[layerid="99"] {stroke:#00CCCC;fill:#00CCCC;stroke-opacity:0.6;fill-opacity:0.6;}
*[layerid="100"] {stroke:#CC9999;fill:#CC9999;}
*[layerid="101"] {stroke:#66FFCC;fill:#66FFCC;}
*[layerid="Hole"] {stroke:#222222;fill:#222222;}
*[layerid="DRCError"] {stroke:#FAD609;fill:#FAD609;}
*[fill="none"] {fill: none;}
*[stroke="none"] {stroke: none;}
path, polyline, polygon, line {stroke-linecap:round;}
g[c_partid="part_pad"][layerid="1"] ellipse:not([c_etype="pad_outer"]) {fill:#FF0000;}
g[c_partid="part_pad"][layerid="1"] polygon:not([c_etype="pad_outer"]) {fill:#FF0000;}
g[c_partid="part_pad"][layerid="1"] polyline:not([c_etype="pad_outer"]) {stroke:#FF0000;}
g[c_partid="part_pad"][layerid="2"] ellipse:not([c_etype="pad_outer"]) {fill:#0000FF;}
g[c_partid="part_pad"][layerid="2"] polygon:not([c_etype="pad_outer"]) {fill:#0000FF;}
g[c_partid="part_pad"][layerid="2"] polyline:not([c_etype="pad_outer"]) {stroke:#0000FF;}
g[c_partid="part_pad"][layerid="11"] ellipse:not([c_etype="pad_outer"]) {fill:#C0C0C0;}
g[c_partid="part_pad"][layerid="11"] polygon:not([c_etype="pad_outer"]) {fill:#C0C0C0;}
g[c_partid="part_pad"][layerid="11"] polyline:not([c_etype="pad_outer"]) {stroke:#C0C0C0;}
g[c_partid="part_pad"][layerid="11"] circle {fill:#222222;}
g[c_partid="part_pad"][layerid="11"] > polyline:nth-of-type(2) {stroke:#222222;}
g[c_partid="part_pad"][layerid="11"][c_shape="ELLIPSE"]  polyline:nth-last-of-type(1) {stroke:#222222;}
g[c_partid="part_pad"][layerid="11"][c_shape="RECT"]  polyline:nth-last-of-type(1) {stroke:#222222;}
g[c_partid="part_pad"][layerid="11"][c_shape="POLYGON"]  polyline:nth-last-of-type(1) {stroke:#222222;}
g[c_partid="part_via"] > * + circle, #gCurParts g[c_partid="part_via"] > * + circle {fill:#222222;}
g[c_partid="part_pad"] > polygon[c_etype="pad_outer"], #gCurParts g[c_partid="part_pad"] > polygon[c_etype="pad_outer"] {stroke-linejoin: round;stroke-miterlimit: 100;}
g[c_partid="part_hole"] > circle {fill: #222222;}path, polyline, polygon {stroke-linejoin:round;}
rect, circle, ellipse, polyline, line, polygon, path {shape-rendering:crispEdges;}
</style>
<rect x="4037.6" y="3036.4" width="151.4" height="121.1" fill="#000000" stroke="none"/><polyline points="4116.7211 3118.5001 4116.7211 3121.1871 4116.8411 3121.3071 4130.4271 3121.3071 4132.7001 3119.0341" stroke-width="1"  stroke-linecap="round" fill="none" layerid="1" net="R1_1" id="gge1206" locked="0" /><polyline points="4114.0341 3118.5001 4116.7211 3118.5001" stroke-width="1"  stroke-linecap="round" fill="none" layerid="1" net="R1_1" id="gge1203" locked="0" /><polyline points="4135.5001 3119.0341 4134.1001 3119.0341" stroke-width="1"  stroke-linecap="round" fill="none" layerid="1" net="R1_1" id="gge1200" locked="0" /><polyline points="4134.1001 3119.0341 4132.7001 3119.0341" stroke-width="1"  stroke-linecap="round" fill="none" layerid="1" net="R1_1" id="gge1197" locked="0" /><polyline points="4134.1001 3119.0341 4134.1001 3112.3361 4112.1061 3090.3421" stroke-width="1"  stroke-linecap="round" fill="none" layerid="1" net="R1_1" id="gge1194" locked="0" /><polyline points="4158.4661 3133.5001 4155.7791 3133.5001" stroke-width="1"  stroke-linecap="round" fill="none" layerid="1" net="U1_4" id="gge1191" locked="0" /><polyline points="4164.0001 3094.0001 4164.0001 3130.6521 4161.1521 3133.5001" stroke-width="1"  stroke-linecap="round" fill="none" layerid="1" net="U1_4" id="gge1188" locked="0" /><polyline points="4158.4661 3133.5001 4161.1521 3133.5001" stroke-width="1"  stroke-linecap="round" fill="none" layerid="1" net="U1_4" id="gge1185" locked="0" /><polyline points="4076.0001 3125.5001 4088.0001 3137.5001 4115.2441 3137.5001" stroke-width="1"  stroke-linecap="round" fill="none" layerid="1" net="U1_4" id="gge1182" locked="0" /><polyline points="4117.9181 3137.5001 4117.9181 3140.1741 4118.1221 3140.3781 4151.5881 3140.3781 4155.7791 3136.1871 4155.7791 3133.5001" stroke-width="1"  stroke-linecap="round" fill="none" layerid="1" net="U1_4" id="gge1179" locked="0" /><polyline points="4115.2441 3137.5001 4117.9181 3137.5001" stroke-width="1"  stroke-linecap="round" fill="none" layerid="1" net="U1_4" id="gge1176" locked="0" /><polyline points="4135.5001 3127.6521 4133.2781 3127.6521 4123.4301 3137.5001" stroke-width="1"  stroke-linecap="round" fill="none" layerid="1" net="U1_2" id="gge1170" locked="0" /><polyline points="4120.7561 3137.5001 4123.4301 3137.5001" stroke-width="1"  stroke-linecap="round" fill="none" layerid="1" net="U1_2" id="gge1167" locked="0" /><polyline points="4135.5001 3124.9661 4135.5001 3126.3091" stroke-width="1"  stroke-linecap="round" fill="none" layerid="1" net="U1_2" id="gge1164" locked="0" /><polyline points="4135.5001 3126.3091 4135.5001 3127.6521" stroke-width="1"  stroke-linecap="round" fill="none" layerid="1" net="U1_2" id="gge1161" locked="0" /><polyline points="4135.5001 3126.3091 4144.0001 3117.8091 4144.0001 3094.0001" stroke-width="1"  stroke-linecap="round" fill="none" layerid="1" net="U1_2" id="gge1158" locked="0" /><polyline points="4149.8481 3133.5001 4149.8481 3124.6141 4149.0341 3123.8001" stroke-width="1"  stroke-linecap="round" fill="none" layerid="1" net="U1_3" id="gge1155" locked="0" /><polyline points="4152.5341 3133.5001 4149.8481 3133.5001" stroke-width="1"  stroke-linecap="round" fill="none" layerid="1" net="U1_3" id="gge1152" locked="0" /><polyline points="4149.0341 3122.4001 4149.0341 3123.8001" stroke-width="1"  stroke-linecap="round" fill="none" layerid="1" net="U1_3" id="gge1149" locked="0" /><polyline points="4149.0341 3122.4001 4149.0341 3121.0001" stroke-width="1"  stroke-linecap="round" fill="none" layerid="1" net="U1_3" id="gge1146" locked="0" /><polyline points="4149.0341 3121.0001 4149.0341 3098.9661 4154.0001 3094.0001" stroke-width="1"  stroke-linecap="round" fill="none" layerid="1" net="U1_3" id="gge1143" locked="0" /><polyline points="4106.0091 3115.5261 4106.0091 3087.6721 4121.5831 3072.0981 4135.9021 3072.0981 4144.0001 3064.0001" stroke-width="1"  stroke-linecap="round" fill="none" layerid="1" net="U1_7" id="gge1140" locked="0" /><polyline points="4119.9661 3118.5001 4116.9921 3115.5261 4106.0091 3115.5261" stroke-width="1"  stroke-linecap="round" fill="none" layerid="1" net="U1_7" id="gge1137" locked="0" /><polyline points="4106.0091 3115.5261 4078.1001 3115.5261 4068.1261 3125.5001" stroke-width="1"  stroke-linecap="round" fill="none" layerid="1" net="U1_7" id="gge1134" locked="0" /><polyline points="4157.6521 3121.0001 4158.4961 3120.1561 4158.4961 3068.4961 4154.0001 3064.0001" stroke-width="1"  stroke-linecap="round" fill="none" layerid="1" net="U1_6" id="gge1131" locked="0" /><polyline points="4154.9661 3121.0001 4157.6521 3121.0001" stroke-width="1"  stroke-linecap="round" fill="none" layerid="1" net="U1_6" id="gge1128" locked="0" /><g c_partid="part_pad" c_etype="pinpart" c_origin="4120.756,3137.5" layerid="1" number="2" net="U1_2" plated ="Y"  id="gge633" locked="0" c_rotation="0" c_width="3.1496" c_height="3.5433" title="U1_2" c_shape="RECT" pasteexpansion="0.0000" solderexpansion="0.2000"><polygon  c_etype="pad_shell" points="4119.1811 3135.7283 4122.3307 3135.7283 4122.3307 3139.2717 4119.1811 3139.2717" layerid="1" stroke-width="0" /><circle c_etype="pad_hole" cx="4120.7555" cy="3137.5" r="0" layerid="1" stroke-width="0"/></g><g c_partid="part_pad" c_etype="pinpart" c_origin="4115.244,3137.5" layerid="1" number="1" net="U1_4" plated ="Y"  id="gge648" locked="0" c_rotation="0" c_width="3.1496" c_height="3.5433" title="U1_4" c_shape="RECT" pasteexpansion="0.0000" solderexpansion="0.2000"><polygon  c_etype="pad_shell" points="4113.6693 3135.7283 4116.8189 3135.7283 4116.8189 3139.2717 4113.6693 3139.2717" layerid="1" stroke-width="0" /><circle c_etype="pad_hole" cx="4115.2445" cy="3137.5" r="0" layerid="1" stroke-width="0"/></g><g c_partid="part_pad" c_etype="pinpart" c_origin="4135.5,3119.034" layerid="1" number="2" net="R1_1" plated ="Y"  id="gge711" locked="0" c_rotation="90" c_width="3.1751" c_height="3.4016" title="R1_1" c_shape="RECT" pasteexpansion="-393.7008" solderexpansion="0.2000"><polygon  c_etype="pad_shell" points="4137.2008 3120.622 4133.7992 3120.622 4133.7992 3117.4469 4137.2008 3117.4469" layerid="1" stroke-width="0" /><circle c_etype="pad_hole" cx="4135.5" cy="3119.0345" r="0" layerid="1" stroke-width="0"/></g><g c_partid="part_pad" c_etype="pinpart" c_origin="4135.5,3124.966" layerid="1" number="1" net="U1_2" plated ="Y"  id="gge723" locked="0" c_rotation="90" c_width="3.1751" c_height="3.4016" title="U1_2" c_shape="RECT" pasteexpansion="-393.7008" solderexpansion="0.2000"><polygon  c_etype="pad_shell" points="4137.2008 3123.378 4133.7992 3123.378 4133.7992 3126.5531 4137.2008 3126.5531" layerid="1" stroke-width="0" /><circle c_etype="pad_hole" cx="4135.5" cy="3124.9655" r="0" layerid="1" stroke-width="0"/></g><g c_partid="part_pad" c_etype="pinpart" c_origin="4154.966,3121" layerid="1" number="2" net="U1_6" plated ="Y"  id="gge783" locked="0" c_rotation="0" c_width="3.1751" c_height="3.4016" title="U1_6" c_shape="RECT" pasteexpansion="-393.7008" solderexpansion="0.2000"><polygon  c_etype="pad_shell" points="4153.378 3122.7008 4153.378 3119.2992 4156.5531 3119.2992 4156.5531 3122.7008" layerid="1" stroke-width="0" /><circle c_etype="pad_hole" cx="4154.9655" cy="3121" r="0" layerid="1" stroke-width="0"/></g><g c_partid="part_pad" c_etype="pinpart" c_origin="4149.034,3121" layerid="1" number="1" net="U1_3" plated ="Y"  id="gge795" locked="0" c_rotation="0" c_width="3.1751" c_height="3.4016" title="U1_3" c_shape="RECT" pasteexpansion="-393.7008" solderexpansion="0.2000"><polygon  c_etype="pad_shell" points="4150.622 3122.7008 4150.622 3119.2992 4147.4469 3119.2992 4147.4469 3122.7008" layerid="1" stroke-width="0" /><circle c_etype="pad_hole" cx="4149.0345" cy="3121" r="0" layerid="1" stroke-width="0"/></g><g c_partid="part_pad" c_etype="pinpart" c_origin="4158.466,3133.5" layerid="1" number="2" net="U1_4" plated ="Y"  id="gge855" locked="0" c_rotation="0" c_width="3.1751" c_height="3.4016" title="U1_4" c_shape="RECT" pasteexpansion="-393.7008" solderexpansion="0.2000"><polygon  c_etype="pad_shell" points="4156.878 3135.2008 4156.878 3131.7992 4160.0531 3131.7992 4160.0531 3135.2008" layerid="1" stroke-width="0" /><circle c_etype="pad_hole" cx="4158.4655" cy="3133.5" r="0" layerid="1" stroke-width="0"/></g><g c_partid="part_pad" c_etype="pinpart" c_origin="4152.534,3133.5" layerid="1" number="1" net="U1_3" plated ="Y"  id="gge867" locked="0" c_rotation="0" c_width="3.1751" c_height="3.4016" title="U1_3" c_shape="RECT" pasteexpansion="-393.7008" solderexpansion="0.2000"><polygon  c_etype="pad_shell" points="4154.122 3135.2008 4154.122 3131.7992 4150.9469 3131.7992 4150.9469 3135.2008" layerid="1" stroke-width="0" /><circle c_etype="pad_hole" cx="4152.5345" cy="3133.5" r="0" layerid="1" stroke-width="0"/></g><g c_partid="part_pad" c_etype="pinpart" c_origin="4119.966,3118.5" layerid="1" number="2" net="U1_7" plated ="Y"  id="gge909" locked="0" c_rotation="0" c_width="3.1751" c_height="3.4016" title="U1_7" c_shape="RECT" pasteexpansion="-393.7008" solderexpansion="0.2000"><polygon  c_etype="pad_shell" points="4118.378 3120.2008 4118.378 3116.7992 4121.5531 3116.7992 4121.5531 3120.2008" layerid="1" stroke-width="0" /><circle c_etype="pad_hole" cx="4119.9655" cy="3118.5" r="0" layerid="1" stroke-width="0"/></g><g c_partid="part_pad" c_etype="pinpart" c_origin="4114.034,3118.5" layerid="1" number="1" net="R1_1" plated ="Y"  id="gge921" locked="0" c_rotation="0" c_width="3.1751" c_height="3.4016" title="R1_1" c_shape="RECT" pasteexpansion="-393.7008" solderexpansion="0.2000"><polygon  c_etype="pad_shell" points="4115.622 3120.2008 4115.622 3116.7992 4112.4469 3116.7992 4112.4469 3120.2008" layerid="1" stroke-width="0" /><circle c_etype="pad_hole" cx="4114.0345" cy="3118.5" r="0" layerid="1" stroke-width="0"/></g><g c_partid="part_pad" c_etype="pinpart" c_origin="4112.106,3090.3425" layerid="11" number="4" net="R1_1" plated ="Y"  id="gge147" locked="0" c_rotation="180" c_width="9.8425" c_height="9.8425" title="R1_1" c_shape="ELLIPSE" pasteexpansion="0" solderexpansion="0.2"><ellipse c_etype="pad_shell" cx="4112.106" cy="3090.3425" rx="4.92125" ry="4.92125" layerid="11" stroke-width="0"/><circle c_etype="pad_hole" cx="4112.106" cy="3090.342" r="2.9528" layerid="11" stroke-width="0"/></g><g c_partid="part_pad" c_etype="pinpart" c_origin="4062.894,3090.3425" layerid="11" number="3" net="SW1_3" plated ="Y"  id="gge162" locked="0" c_rotation="180" c_width="9.8425" c_height="9.8425" title="SW1_3" c_shape="ELLIPSE" pasteexpansion="0" solderexpansion="0.2"><ellipse c_etype="pad_shell" cx="4062.894" cy="3090.3425" rx="4.92125" ry="4.92125" layerid="11" stroke-width="0"/><circle c_etype="pad_hole" cx="4062.894" cy="3090.342" r="2.9528" layerid="11" stroke-width="0"/></g><g c_partid="part_pad" c_etype="pinpart" c_origin="4112.106,3070.6575" layerid="11" number="2" net="SW1_2" plated ="Y"  id="gge177" locked="0" c_rotation="180" c_width="9.8425" c_height="9.8425" title="SW1_2" c_shape="ELLIPSE" pasteexpansion="0" solderexpansion="0.2"><ellipse c_etype="pad_shell" cx="4112.106" cy="3070.6575" rx="4.92125" ry="4.92125" layerid="11" stroke-width="0"/><circle c_etype="pad_hole" cx="4112.106" cy="3070.657" r="2.9528" layerid="11" stroke-width="0"/></g><g c_partid="part_pad" c_etype="pinpart" c_origin="4062.894,3070.6575" layerid="11" number="1" net="U1_4" plated ="Y"  id="gge192" locked="0" c_rotation="180" c_width="9.8425" c_height="9.8425" title="U1_4" c_shape="ELLIPSE" pasteexpansion="0" solderexpansion="0.2"><ellipse c_etype="pad_shell" cx="4062.894" cy="3070.6575" rx="4.92125" ry="4.92125" layerid="11" stroke-width="0"/><circle c_etype="pad_hole" cx="4062.894" cy="3070.657" r="2.9528" layerid="11" stroke-width="0"/></g><g c_partid="part_pad" c_etype="pinpart" c_origin="4134,3094" layerid="11" number="1" net="U1_1" plated ="Y"  id="gge300" locked="0" c_rotation="0" c_width="5.9055" c_height="5.9055" title="U1_1" c_shape="RECT" pasteexpansion="0" solderexpansion="0.2"><polygon  c_etype="pad_shell" points="4131.0472 3091.0472 4136.9528 3091.0472 4136.9528 3096.9528 4131.0472 3096.9528" layerid="11" stroke-width="0" /><circle c_etype="pad_hole" cx="4134" cy="3094" r="1.7717" layerid="11" stroke-width="0"/></g><g c_partid="part_pad" c_etype="pinpart" c_origin="4144,3094" layerid="11" number="2" net="U1_2" plated ="Y"  id="gge315" locked="0" c_rotation="90" c_width="5.9055" c_height="5.9055" title="U1_2" c_shape="ELLIPSE" pasteexpansion="0" solderexpansion="0.2"><ellipse c_etype="pad_shell" cx="4144" cy="3094" rx="2.95275" ry="2.95275" layerid="11" stroke-width="0"/><circle c_etype="pad_hole" cx="4144" cy="3094" r="1.7717" layerid="11" stroke-width="0"/></g><g c_partid="part_pad" c_etype="pinpart" c_origin="4154,3094" layerid="11" number="3" net="U1_3" plated ="Y"  id="gge330" locked="0" c_rotation="90" c_width="5.9055" c_height="5.9055" title="U1_3" c_shape="ELLIPSE" pasteexpansion="0" solderexpansion="0.2"><ellipse c_etype="pad_shell" cx="4154" cy="3094" rx="2.95275" ry="2.95275" layerid="11" stroke-width="0"/><circle c_etype="pad_hole" cx="4154" cy="3094" r="1.7717" layerid="11" stroke-width="0"/></g><g c_partid="part_pad" c_etype="pinpart" c_origin="4164,3094" layerid="11" number="4" net="U1_4" plated ="Y"  id="gge345" locked="0" c_rotation="90" c_width="5.9055" c_height="5.9055" title="U1_4" c_shape="ELLIPSE" pasteexpansion="0" solderexpansion="0.2"><ellipse c_etype="pad_shell" cx="4164" cy="3094" rx="2.95275" ry="2.95275" layerid="11" stroke-width="0"/><circle c_etype="pad_hole" cx="4164" cy="3094" r="1.7717" layerid="11" stroke-width="0"/></g><g c_partid="part_pad" c_etype="pinpart" c_origin="4134,3064" layerid="11" number="8" net="U1_8" plated ="Y"  id="gge360" locked="0" c_rotation="90" c_width="5.9055" c_height="5.9055" title="U1_8" c_shape="ELLIPSE" pasteexpansion="0" solderexpansion="0.2"><ellipse c_etype="pad_shell" cx="4134" cy="3064" rx="2.95275" ry="2.95275" layerid="11" stroke-width="0"/><circle c_etype="pad_hole" cx="4134" cy="3064" r="1.7717" layerid="11" stroke-width="0"/></g><g c_partid="part_pad" c_etype="pinpart" c_origin="4144,3064" layerid="11" number="7" net="U1_7" plated ="Y"  id="gge375" locked="0" c_rotation="90" c_width="5.9055" c_height="5.9055" title="U1_7" c_shape="ELLIPSE" pasteexpansion="0" solderexpansion="0.2"><ellipse c_etype="pad_shell" cx="4144" cy="3064" rx="2.95275" ry="2.95275" layerid="11" stroke-width="0"/><circle c_etype="pad_hole" cx="4144" cy="3064" r="1.7717" layerid="11" stroke-width="0"/></g><g c_partid="part_pad" c_etype="pinpart" c_origin="4154,3064" layerid="11" number="6" net="U1_6" plated ="Y"  id="gge390" locked="0" c_rotation="90" c_width="5.9055" c_height="5.9055" title="U1_6" c_shape="ELLIPSE" pasteexpansion="0" solderexpansion="0.2"><ellipse c_etype="pad_shell" cx="4154" cy="3064" rx="2.95275" ry="2.95275" layerid="11" stroke-width="0"/><circle c_etype="pad_hole" cx="4154" cy="3064" r="1.7717" layerid="11" stroke-width="0"/></g><g c_partid="part_pad" c_etype="pinpart" c_origin="4164,3064" layerid="11" number="5" net="U1_5" plated ="Y"  id="gge405" locked="0" c_rotation="90" c_width="5.9055" c_height="5.9055" title="U1_5" c_shape="ELLIPSE" pasteexpansion="0" solderexpansion="0.2"><ellipse c_etype="pad_shell" cx="4164" cy="3064" rx="2.95275" ry="2.95275" layerid="11" stroke-width="0"/><circle c_etype="pad_hole" cx="4164" cy="3064" r="1.7717" layerid="11" stroke-width="0"/></g><g c_partid="part_pad" c_etype="pinpart" c_origin="4083.874,3125.5" layerid="11" number="3" net="U1_6" plated ="Y"  id="gge465" locked="0" c_rotation="0" c_width="5.9055" c_height="5.9055" title="U1_6" c_shape="ELLIPSE" pasteexpansion="0" solderexpansion="0.2"><ellipse c_etype="pad_shell" cx="4083.874" cy="3125.5" rx="2.95275" ry="2.95275" layerid="11" stroke-width="0"/><circle c_etype="pad_hole" cx="4083.874" cy="3125.5" r="1.7717" layerid="11" stroke-width="0"/></g><g c_partid="part_pad" c_etype="pinpart" c_origin="4076,3125.5" layerid="11" number="2" net="U1_4" plated ="Y"  id="gge480" locked="0" c_rotation="0" c_width="5.9055" c_height="5.9055" title="U1_4" c_shape="ELLIPSE" pasteexpansion="0" solderexpansion="0.2"><ellipse c_etype="pad_shell" cx="4076" cy="3125.5" rx="2.95275" ry="2.95275" layerid="11" stroke-width="0"/><circle c_etype="pad_hole" cx="4076" cy="3125.5" r="1.7717" layerid="11" stroke-width="0"/></g><g c_partid="part_pad" c_etype="pinpart" c_origin="4068.126,3125.5" layerid="11" number="1" net="U1_7" plated ="Y"  id="gge495" locked="0" c_rotation="0" c_width="5.9055" c_height="5.9055" title="U1_7" c_shape="RECT" pasteexpansion="0" solderexpansion="0.2"><polygon  c_etype="pad_shell" points="4065.1732 3122.5472 4071.0788 3122.5472 4071.0788 3128.4528 4065.1732 3128.4528" layerid="11" stroke-width="0" /><circle c_etype="pad_hole" cx="4068.126" cy="3125.5" r="1.7717" layerid="11" stroke-width="0"/></g><polyline points="4062.6968 3055.6965 4112.303 3055.6964" stroke-width="1"  stroke-linecap="round" fill="none" layerid="3" net="" id="gge111" locked="0" /><polyline points="4062.6968 3105.3025 4112.303 3105.3026" stroke-width="1"  stroke-linecap="round" fill="none" layerid="3" net="" id="gge114" locked="0" /><polyline points="4062.6968 3055.6965 4062.6968 3064.6716" stroke-width="1"  stroke-linecap="round" fill="none" layerid="3" net="" id="gge117" locked="0" /><polyline points="4062.6968 3076.3274 4062.6968 3084.6716" stroke-width="1"  stroke-linecap="round" fill="none" layerid="3" net="" id="gge120" locked="0" /><polyline points="4062.6968 3096.3274 4062.6968 3105.3025" stroke-width="1"  stroke-linecap="round" fill="none" layerid="3" net="" id="gge123" locked="0" /><polyline points="4112.303 3055.6964 4112.303 3064.6716" stroke-width="1"  stroke-linecap="round" fill="none" layerid="3" net="" id="gge126" locked="0" /><polyline points="4112.303 3076.3274 4112.303 3084.6716" stroke-width="1"  stroke-linecap="round" fill="none" layerid="3" net="" id="gge129" locked="0" /><polyline points="4112.303 3096.3274 4112.303 3105.3026" stroke-width="1"  stroke-linecap="round" fill="none" layerid="3" net="" id="gge132" locked="0" /><polyline points="4129.5512 3076.4803 4129.55 3076.5 4129.55 3068.57 4168.53 3068.57 4168.53 3089.43 4129.55 3089.43 4129.55 3081.5 4129.5512 3081.5197" stroke-width="0.7874"  stroke-linecap="round" fill="none" layerid="3" net="" id="gge225" locked="0" /><polyline points="4072 3120.5 4072 3130.5" stroke-width="1"  stroke-linecap="round" fill="none" layerid="3" net="" id="gge444" locked="0" /><polyline points="4063 3120.5 4089 3120.5 4089 3130.5 4063 3130.5 4063 3120.5" stroke-width="1"  stroke-linecap="round" fill="none" layerid="3" net="" id="gge447" locked="0" /><polyline points="4123.4725 3135.9261 4123.4725 3139.0758" stroke-width="1"  stroke-linecap="round" fill="none" layerid="3" net="" id="gge594" locked="0" /><polyline points="4119.1034 3134.7062 4122.2529 3134.7062" stroke-width="1"  stroke-linecap="round" fill="none" layerid="3" net="" id="gge597" locked="0" /><polyline points="4119.1034 3140.2954 4122.2529 3140.2954" stroke-width="1"  stroke-linecap="round" fill="none" layerid="3" net="" id="gge600" locked="0" /><polyline points="4116.8361 3134.6833 4113.6865 3134.6833" stroke-width="1"  stroke-linecap="round" fill="none" layerid="3" net="" id="gge603" locked="0" /><polyline points="4112.4667 3135.9031 4112.4667 3139.0526" stroke-width="1"  stroke-linecap="round" fill="none" layerid="3" net="" id="gge606" locked="0" /><polyline points="4116.8361 3140.2723 4113.6865 3140.2723" stroke-width="1"  stroke-linecap="round" fill="none" layerid="3" net="" id="gge609" locked="0" /><polyline points="4138.1008 3120.322 4138.1008 3116.5469 4132.8992 3116.5469 4132.8992 3120.322" stroke-width="0.6"  stroke-linecap="round" fill="none" layerid="3" net="" id="gge696" locked="0" /><polyline points="4138.1008 3123.678 4138.1008 3127.4531 4132.8992 3127.4531 4132.8992 3123.678" stroke-width="0.6"  stroke-linecap="round" fill="none" layerid="3" net="" id="gge699" locked="0" /><polyline points="4153.678 3123.6008 4157.4531 3123.6008 4157.4531 3118.3992 4153.678 3118.3992" stroke-width="0.6"  stroke-linecap="round" fill="none" layerid="3" net="" id="gge768" locked="0" /><polyline points="4150.322 3123.6008 4146.5469 3123.6008 4146.5469 3118.3992 4150.322 3118.3992" stroke-width="0.6"  stroke-linecap="round" fill="none" layerid="3" net="" id="gge771" locked="0" /><polyline points="4157.178 3136.1008 4160.9531 3136.1008 4160.9531 3130.8992 4157.178 3130.8992" stroke-width="0.6"  stroke-linecap="round" fill="none" layerid="3" net="" id="gge840" locked="0" /><polyline points="4153.822 3136.1008 4150.0469 3136.1008 4150.0469 3130.8992 4153.822 3130.8992" stroke-width="0.6"  stroke-linecap="round" fill="none" layerid="3" net="" id="gge843" locked="0" /><polyline points="4118.678 3121.1008 4122.4531 3121.1008 4122.4531 3115.8992 4118.678 3115.8992" stroke-width="0.6"  stroke-linecap="round" fill="none" layerid="3" net="" id="gge894" locked="0" /><polyline points="4115.322 3121.1008 4111.5469 3121.1008 4111.5469 3115.8992 4115.322 3115.8992" stroke-width="0.6"  stroke-linecap="round" fill="none" layerid="3" net="" id="gge897" locked="0" /><g c_partid="part_pcbtext" c_etype="" c_origin="4086.606,3047.4995" c_rotation="0" c_mirror="" id="gge81" locked="0" layerid="3" c_shapetype="group" display="none"><path c_fontsize="4.5" c_fontfamily="" c_text="TS-1103-8526" d="M 4088.036 3042.9595 L 4088.036 3047.2495 M 4086.606 3042.9595 L 4089.466 3042.9595 M 4093.686 3043.5695 L 4093.276 3043.1595 L 4092.656 3042.9595 L 4091.846 3042.9595 L 4091.226 3043.1595 L 4090.816 3043.5695 L 4090.816 3043.9795 L 4091.026 3044.3895 L 4091.226 3044.5995 L 4091.636 3044.7995 L 4092.866 3045.2095 L 4093.276 3045.4095 L 4093.476 3045.6195 L 4093.686 3046.0295 L 4093.686 3046.6395 L 4093.276 3047.0495 L 4092.656 3047.2495 L 4091.846 3047.2495 L 4091.226 3047.0495 L 4090.816 3046.6395 M 4095.036 3045.4095 L 4098.716 3045.4095 M 4100.066 3043.7795 L 4100.476 3043.5695 L 4101.086 3042.9595 L 4101.086 3047.2495 M 4102.436 3043.7795 L 4102.846 3043.5695 L 4103.456 3042.9595 L 4103.456 3047.2495 M 4106.036 3042.9595 L 4105.426 3043.1595 L 4105.016 3043.7795 L 4104.806 3044.7995 L 4104.806 3045.4095 L 4105.016 3046.4395 L 4105.426 3047.0495 L 4106.036 3047.2495 L 4106.446 3047.2495 L 4107.056 3047.0495 L 4107.466 3046.4395 L 4107.676 3045.4095 L 4107.676 3044.7995 L 4107.466 3043.7795 L 4107.056 3043.1595 L 4106.446 3042.9595 L 4106.036 3042.9595 M 4109.436 3042.9595 L 4111.686 3042.9595 L 4110.456 3044.5995 L 4111.066 3044.5995 L 4111.476 3044.7995 L 4111.686 3044.9995 L 4111.886 3045.6195 L 4111.886 3046.0295 L 4111.686 3046.6395 L 4111.276 3047.0495 L 4110.656 3047.2495 L 4110.046 3047.2495 L 4109.436 3047.0495 L 4109.226 3046.8495 L 4109.026 3046.4395 M 4113.236 3045.4095 L 4116.916 3045.4095 M 4119.296 3042.9595 L 4118.676 3043.1595 L 4118.476 3043.5695 L 4118.476 3043.9795 L 4118.676 3044.3895 L 4119.086 3044.5995 L 4119.906 3044.7995 L 4120.516 3044.9995 L 4120.926 3045.4095 L 4121.136 3045.8195 L 4121.136 3046.4395 L 4120.926 3046.8495 L 4120.726 3047.0495 L 4120.106 3047.2495 L 4119.296 3047.2495 L 4118.676 3047.0495 L 4118.476 3046.8495 L 4118.266 3046.4395 L 4118.266 3045.8195 L 4118.476 3045.4095 L 4118.886 3044.9995 L 4119.496 3044.7995 L 4120.316 3044.5995 L 4120.726 3044.3895 L 4120.926 3043.9795 L 4120.926 3043.5695 L 4120.726 3043.1595 L 4120.106 3042.9595 L 4119.296 3042.9595 M 4124.936 3042.9595 L 4122.896 3042.9595 L 4122.686 3044.7995 L 4122.896 3044.5995 L 4123.506 3044.3895 L 4124.116 3044.3895 L 4124.736 3044.5995 L 4125.146 3044.9995 L 4125.346 3045.6195 L 4125.346 3046.0295 L 4125.146 3046.6395 L 4124.736 3047.0495 L 4124.116 3047.2495 L 4123.506 3047.2495 L 4122.896 3047.0495 L 4122.686 3046.8495 L 4122.486 3046.4395 M 4126.906 3043.9795 L 4126.906 3043.7795 L 4127.106 3043.3695 L 4127.306 3043.1595 L 4127.716 3042.9595 L 4128.536 3042.9595 L 4128.946 3043.1595 L 4129.156 3043.3695 L 4129.356 3043.7795 L 4129.356 3044.1895 L 4129.156 3044.5995 L 4128.746 3045.2095 L 4126.696 3047.2495 L 4129.556 3047.2495 M 4133.366 3043.5695 L 4133.156 3043.1595 L 4132.546 3042.9595 L 4132.136 3042.9595 L 4131.526 3043.1595 L 4131.116 3043.7795 L 4130.906 3044.7995 L 4130.906 3045.8195 L 4131.116 3046.6395 L 4131.526 3047.0495 L 4132.136 3047.2495 L 4132.346 3047.2495 L 4132.956 3047.0495 L 4133.366 3046.6395 L 4133.566 3046.0295 L 4133.566 3045.8195 L 4133.366 3045.2095 L 4132.956 3044.7995 L 4132.346 3044.5995 L 4132.136 3044.5995 L 4131.526 3044.7995 L 4131.116 3045.2095 L 4130.906 3045.8195" fill="none"  stroke-width="0.6" c_note="note_name" /></g><g c_partid="part_pcbtext" c_etype="" c_origin="4086.606,3054.4995" c_rotation="0" c_mirror="" id="gge87" locked="0" layerid="3" c_shapetype="group" ><path c_fontsize="4.5" c_fontfamily="" c_text="SW1" d="M 4089.466 3050.5695 L 4089.056 3050.1595 L 4088.446 3049.9595 L 4087.626 3049.9595 L 4087.016 3050.1595 L 4086.606 3050.5695 L 4086.606 3050.9795 L 4086.806 3051.3895 L 4087.016 3051.5995 L 4087.426 3051.7995 L 4088.656 3052.2095 L 4089.056 3052.4095 L 4089.266 3052.6195 L 4089.466 3053.0295 L 4089.466 3053.6395 L 4089.056 3054.0495 L 4088.446 3054.2495 L 4087.626 3054.2495 L 4087.016 3054.0495 L 4086.606 3053.6395 M 4090.816 3049.9595 L 4091.846 3054.2495 M 4092.866 3049.9595 L 4091.846 3054.2495 M 4092.866 3049.9595 L 4093.886 3054.2495 M 4094.906 3049.9595 L 4093.886 3054.2495 M 4096.256 3050.7795 L 4096.666 3050.5695 L 4097.286 3049.9595 L 4097.286 3054.2495" fill="none"  stroke-width="0.6" c_note="note_pre" /></g><g c_partid="part_pcbtext" c_etype="" c_origin="4147.5,3052" c_rotation="0" c_mirror="" id="gge213" locked="0" layerid="3" c_shapetype="group" display="none"><path c_fontsize="4.5" c_fontfamily="" c_text="LM741CN" d="M 4147.5 3047.46 L 4147.5 3051.75 M 4147.5 3051.75 L 4149.95 3051.75 M 4151.3 3047.46 L 4151.3 3051.75 M 4151.3 3047.46 L 4152.94 3051.75 M 4154.58 3047.46 L 4152.94 3051.75 M 4154.58 3047.46 L 4154.58 3051.75 M 4158.79 3047.46 L 4156.75 3051.75 M 4155.93 3047.46 L 4158.79 3047.46 M 4162.19 3047.46 L 4160.14 3050.32 L 4163.21 3050.32 M 4162.19 3047.46 L 4162.19 3051.75 M 4164.56 3048.28 L 4164.97 3048.07 L 4165.58 3047.46 L 4165.58 3051.75 M 4170 3048.48 L 4169.8 3048.07 L 4169.39 3047.66 L 4168.98 3047.46 L 4168.16 3047.46 L 4167.75 3047.66 L 4167.34 3048.07 L 4167.14 3048.48 L 4166.93 3049.1 L 4166.93 3050.12 L 4167.14 3050.73 L 4167.34 3051.14 L 4167.75 3051.55 L 4168.16 3051.75 L 4168.98 3051.75 L 4169.39 3051.55 L 4169.8 3051.14 L 4170 3050.73 M 4171.35 3047.46 L 4171.35 3051.75 M 4171.35 3047.46 L 4174.21 3051.75 M 4174.21 3047.46 L 4174.21 3051.75" fill="none"  stroke-width="0.6" c_note="note_name" /></g><g c_partid="part_pcbtext" c_etype="" c_origin="4147.5,3059" c_rotation="0" c_mirror="" id="gge219" locked="0" layerid="3" c_shapetype="group" ><path c_fontsize="4.5" c_fontfamily="" c_text="U1" d="M 4147.5 3054.46 L 4147.5 3057.53 L 4147.7 3058.14 L 4148.11 3058.55 L 4148.73 3058.75 L 4149.14 3058.75 L 4149.75 3058.55 L 4150.16 3058.14 L 4150.36 3057.53 L 4150.36 3054.46 M 4151.71 3055.28 L 4152.12 3055.07 L 4152.74 3054.46 L 4152.74 3058.75" fill="none"  stroke-width="0.6" c_note="note_pre" /></g><g c_partid="part_pcbtext" c_etype="" c_origin="4075.126,3112.5" c_rotation="0" c_mirror="" id="gge426" locked="0" layerid="3" c_shapetype="group" display="none"><path c_fontsize="4.5" c_fontfamily="" c_text="DW200R-11-03-43" d="M 4075.126 3107.96 L 4075.126 3112.25 M 4075.126 3107.96 L 4076.556 3107.96 L 4077.176 3108.16 L 4077.576 3108.57 L 4077.786 3108.98 L 4077.986 3109.6 L 4077.986 3110.62 L 4077.786 3111.23 L 4077.576 3111.64 L 4077.176 3112.05 L 4076.556 3112.25 L 4075.126 3112.25 M 4079.336 3107.96 L 4080.366 3112.25 M 4081.386 3107.96 L 4080.366 3112.25 M 4081.386 3107.96 L 4082.406 3112.25 M 4083.426 3107.96 L 4082.406 3112.25 M 4084.986 3108.98 L 4084.986 3108.78 L 4085.186 3108.37 L 4085.396 3108.16 L 4085.806 3107.96 L 4086.626 3107.96 L 4087.026 3108.16 L 4087.236 3108.37 L 4087.436 3108.78 L 4087.436 3109.19 L 4087.236 3109.6 L 4086.826 3110.21 L 4084.776 3112.25 L 4087.646 3112.25 M 4090.226 3107.96 L 4089.606 3108.16 L 4089.196 3108.78 L 4088.996 3109.8 L 4088.996 3110.41 L 4089.196 3111.44 L 4089.606 3112.05 L 4090.226 3112.25 L 4090.626 3112.25 L 4091.246 3112.05 L 4091.656 3111.44 L 4091.856 3110.41 L 4091.856 3109.8 L 4091.656 3108.78 L 4091.246 3108.16 L 4090.626 3107.96 L 4090.226 3107.96 M 4094.436 3107.96 L 4093.826 3108.16 L 4093.416 3108.78 L 4093.206 3109.8 L 4093.206 3110.41 L 4093.416 3111.44 L 4093.826 3112.05 L 4094.436 3112.25 L 4094.846 3112.25 L 4095.456 3112.05 L 4095.866 3111.44 L 4096.076 3110.41 L 4096.076 3109.8 L 4095.866 3108.78 L 4095.456 3108.16 L 4094.846 3107.96 L 4094.436 3107.96 M 4097.426 3107.96 L 4097.426 3112.25 M 4097.426 3107.96 L 4099.266 3107.96 L 4099.876 3108.16 L 4100.076 3108.37 L 4100.286 3108.78 L 4100.286 3109.19 L 4100.076 3109.6 L 4099.876 3109.8 L 4099.266 3110 L 4097.426 3110 M 4098.856 3110 L 4100.286 3112.25 M 4101.636 3110.41 L 4105.316 3110.41 M 4106.666 3108.78 L 4107.076 3108.57 L 4107.686 3107.96 L 4107.686 3112.25 M 4109.036 3108.78 L 4109.446 3108.57 L 4110.066 3107.96 L 4110.066 3112.25 M 4111.416 3110.41 L 4115.096 3110.41 M 4117.676 3107.96 L 4117.056 3108.16 L 4116.646 3108.78 L 4116.446 3109.8 L 4116.446 3110.41 L 4116.646 3111.44 L 4117.056 3112.05 L 4117.676 3112.25 L 4118.076 3112.25 L 4118.696 3112.05 L 4119.106 3111.44 L 4119.306 3110.41 L 4119.306 3109.8 L 4119.106 3108.78 L 4118.696 3108.16 L 4118.076 3107.96 L 4117.676 3107.96 M 4121.066 3107.96 L 4123.316 3107.96 L 4122.086 3109.6 L 4122.706 3109.6 L 4123.116 3109.8 L 4123.316 3110 L 4123.526 3110.62 L 4123.526 3111.03 L 4123.316 3111.64 L 4122.906 3112.05 L 4122.296 3112.25 L 4121.676 3112.25 L 4121.066 3112.05 L 4120.866 3111.85 L 4120.656 3111.44 M 4124.876 3110.41 L 4128.556 3110.41 M 4131.946 3107.96 L 4129.906 3110.82 L 4132.976 3110.82 M 4131.946 3107.96 L 4131.946 3112.25 M 4134.726 3107.96 L 4136.976 3107.96 L 4135.756 3109.6 L 4136.366 3109.6 L 4136.776 3109.8 L 4136.976 3110 L 4137.186 3110.62 L 4137.186 3111.03 L 4136.976 3111.64 L 4136.576 3112.05 L 4135.956 3112.25 L 4135.346 3112.25 L 4134.726 3112.05 L 4134.526 3111.85 L 4134.326 3111.44" fill="none"  stroke-width="0.6" c_note="note_name" /></g><g c_partid="part_pcbtext" c_etype="" c_origin="4075.126,3119.5" c_rotation="0" c_mirror="" id="gge432" locked="0" layerid="3" c_shapetype="group" ><path c_fontsize="4.5" c_fontfamily="" c_text="U2" d="M 4075.126 3114.96 L 4075.126 3118.03 L 4075.326 3118.64 L 4075.736 3119.05 L 4076.356 3119.25 L 4076.766 3119.25 L 4077.376 3119.05 L 4077.786 3118.64 L 4077.986 3118.03 L 4077.986 3114.96 M 4079.546 3115.98 L 4079.546 3115.78 L 4079.746 3115.37 L 4079.956 3115.16 L 4080.366 3114.96 L 4081.176 3114.96 L 4081.586 3115.16 L 4081.796 3115.37 L 4081.996 3115.78 L 4081.996 3116.19 L 4081.796 3116.6 L 4081.386 3117.21 L 4079.336 3119.25 L 4082.206 3119.25" fill="none"  stroke-width="0.6" c_note="note_pre" /></g><g c_partid="part_pcbtext" c_etype="" c_origin="4117,3126.5" c_rotation="0" c_mirror="" id="gge573" locked="0" layerid="3" c_shapetype="group" display="none"><path c_fontsize="4.5" c_fontfamily="" c_text="0.1u" d="M 4118.23 3121.96 L 4117.61 3122.16 L 4117.2 3122.78 L 4117 3123.8 L 4117 3124.41 L 4117.2 3125.44 L 4117.61 3126.05 L 4118.23 3126.25 L 4118.64 3126.25 L 4119.25 3126.05 L 4119.66 3125.44 L 4119.86 3124.41 L 4119.86 3123.8 L 4119.66 3122.78 L 4119.25 3122.16 L 4118.64 3121.96 L 4118.23 3121.96 M 4121.42 3125.23 L 4121.21 3125.44 L 4121.42 3125.64 L 4121.62 3125.44 L 4121.42 3125.23 M 4122.97 3122.78 L 4123.38 3122.57 L 4124 3121.96 L 4124 3126.25 M 4125.35 3123.39 L 4125.35 3125.44 L 4125.55 3126.05 L 4125.96 3126.25 L 4126.57 3126.25 L 4126.98 3126.05 L 4127.6 3125.44 M 4127.6 3123.39 L 4127.6 3126.25" fill="none"  stroke-width="0.6" c_note="note_name" /></g><g c_partid="part_pcbtext" c_etype="" c_origin="4117,3133.5" c_rotation="0" c_mirror="" id="gge579" locked="0" layerid="3" c_shapetype="group" ><path c_fontsize="4.5" c_fontfamily="" c_text="C1" d="M 4120.07 3129.98 L 4119.86 3129.57 L 4119.45 3129.16 L 4119.05 3128.96 L 4118.23 3128.96 L 4117.82 3129.16 L 4117.41 3129.57 L 4117.2 3129.98 L 4117 3130.6 L 4117 3131.62 L 4117.2 3132.23 L 4117.41 3132.64 L 4117.82 3133.05 L 4118.23 3133.25 L 4119.05 3133.25 L 4119.45 3133.05 L 4119.86 3132.64 L 4120.07 3132.23 M 4121.42 3129.78 L 4121.83 3129.57 L 4122.44 3128.96 L 4122.44 3133.25" fill="none"  stroke-width="0.6" c_note="note_pre" /></g><g c_partid="part_pcbtext" c_etype="" c_origin="4124.5,3122" c_rotation="90" c_mirror="" id="gge669" locked="0" layerid="3" c_shapetype="group" display="none"><path c_fontsize="4.5" c_fontfamily="" c_text="1k" d="M 4120.78 3122 L 4120.57 3121.59 L 4119.96 3120.98 L 4124.25 3120.98 M 4119.96 3119.63 L 4124.25 3119.63 M 4121.39 3117.58 L 4123.44 3119.63 M 4122.62 3118.81 L 4124.25 3117.38" fill="none"  stroke-width="0.6" c_note="note_name" /></g><g c_partid="part_pcbtext" c_etype="" c_origin="4131.5,3122" c_rotation="90" c_mirror="" id="gge675" locked="0" layerid="3" c_shapetype="group" ><path c_fontsize="4.5" c_fontfamily="" c_text="R2" d="M 4126.96 3122 L 4131.25 3122 M 4126.96 3122 L 4126.96 3120.16 L 4127.16 3119.55 L 4127.37 3119.34 L 4127.78 3119.14 L 4128.19 3119.14 L 4128.6 3119.34 L 4128.8 3119.55 L 4129 3120.16 L 4129 3122 M 4129 3120.57 L 4131.25 3119.14 M 4127.98 3117.58 L 4127.78 3117.58 L 4127.37 3117.38 L 4127.16 3117.17 L 4126.96 3116.76 L 4126.96 3115.95 L 4127.16 3115.54 L 4127.37 3115.33 L 4127.78 3115.13 L 4128.19 3115.13 L 4128.6 3115.33 L 4129.21 3115.74 L 4131.25 3117.79 L 4131.25 3114.92" fill="none"  stroke-width="0.6" c_note="note_pre" /></g><g c_partid="part_pcbtext" c_etype="" c_origin="4152,3110" c_rotation="0" c_mirror="" id="gge741" locked="0" layerid="3" c_shapetype="group" display="none"><path c_fontsize="4.5" c_fontfamily="" c_text="1k" d="M 4152 3106.28 L 4152.41 3106.07 L 4153.02 3105.46 L 4153.02 3109.75 M 4154.37 3105.46 L 4154.37 3109.75 M 4156.42 3106.89 L 4154.37 3108.94 M 4155.19 3108.12 L 4156.62 3109.75" fill="none"  stroke-width="0.6" c_note="note_name" /></g><g c_partid="part_pcbtext" c_etype="" c_origin="4152,3117" c_rotation="0" c_mirror="" id="gge747" locked="0" layerid="3" c_shapetype="group" ><path c_fontsize="4.5" c_fontfamily="" c_text="R3" d="M 4152 3112.46 L 4152 3116.75 M 4152 3112.46 L 4153.84 3112.46 L 4154.45 3112.66 L 4154.66 3112.87 L 4154.86 3113.28 L 4154.86 3113.69 L 4154.66 3114.1 L 4154.45 3114.3 L 4153.84 3114.5 L 4152 3114.5 M 4153.43 3114.5 L 4154.86 3116.75 M 4156.62 3112.46 L 4158.87 3112.46 L 4157.65 3114.1 L 4158.26 3114.1 L 4158.67 3114.3 L 4158.87 3114.5 L 4159.08 3115.12 L 4159.08 3115.53 L 4158.87 3116.14 L 4158.46 3116.55 L 4157.85 3116.75 L 4157.24 3116.75 L 4156.62 3116.55 L 4156.42 3116.35 L 4156.21 3115.94" fill="none"  stroke-width="0.6" c_note="note_pre" /></g><g c_partid="part_pcbtext" c_etype="" c_origin="4155.5,3122.5" c_rotation="0" c_mirror="" id="gge813" locked="0" layerid="3" c_shapetype="group" display="none"><path c_fontsize="4.5" c_fontfamily="" c_text="1k" d="M 4155.5 3118.78 L 4155.91 3118.57 L 4156.52 3117.96 L 4156.52 3122.25 M 4157.87 3117.96 L 4157.87 3122.25 M 4159.92 3119.39 L 4157.87 3121.44 M 4158.69 3120.62 L 4160.12 3122.25" fill="none"  stroke-width="0.6" c_note="note_name" /></g><g c_partid="part_pcbtext" c_etype="" c_origin="4155.5,3129.5" c_rotation="0" c_mirror="" id="gge819" locked="0" layerid="3" c_shapetype="group" ><path c_fontsize="4.5" c_fontfamily="" c_text="R4" d="M 4155.5 3124.96 L 4155.5 3129.25 M 4155.5 3124.96 L 4157.34 3124.96 L 4157.95 3125.16 L 4158.16 3125.37 L 4158.36 3125.78 L 4158.36 3126.19 L 4158.16 3126.6 L 4157.95 3126.8 L 4157.34 3127 L 4155.5 3127 M 4156.93 3127 L 4158.36 3129.25 M 4161.76 3124.96 L 4159.71 3127.82 L 4162.78 3127.82 M 4161.76 3124.96 L 4161.76 3129.25" fill="none"  stroke-width="0.6" c_note="note_pre" /></g><g c_partid="part_pcbtext" c_etype="" c_origin="4117.0031,3107.5" c_rotation="0" c_mirror="" id="gge9" locked="0" layerid="3" c_shapetype="group" display="none"><path c_fontsize="4.5" c_fontfamily="" c_text="10k" d="M 4117 3103.78 L 4117.41 3103.57 L 4118.03 3102.96 L 4118.03 3107.25 M 4120.6 3102.96 L 4119.99 3103.16 L 4119.58 3103.78 L 4119.38 3104.8 L 4119.38 3105.41 L 4119.58 3106.44 L 4119.99 3107.05 L 4120.6 3107.25 L 4121.01 3107.25 L 4121.63 3107.05 L 4122.03 3106.44 L 4122.24 3105.41 L 4122.24 3104.8 L 4122.03 3103.78 L 4121.63 3103.16 L 4121.01 3102.96 L 4120.6 3102.96 M 4123.59 3102.96 L 4123.59 3107.25 M 4125.63 3104.39 L 4123.59 3106.44 M 4124.41 3105.62 L 4125.84 3107.25" fill="none"  stroke-width="0.6" c_note="note_name" /></g><g c_partid="part_pcbtext" c_etype="" c_origin="4117.0031,3114.5" c_rotation="0" c_mirror="" id="gge15" locked="0" layerid="3" c_shapetype="group" ><path c_fontsize="4.5" c_fontfamily="" c_text="R1" d="M 4117 3109.96 L 4117 3114.25 M 4117 3109.96 L 4118.84 3109.96 L 4119.46 3110.16 L 4119.66 3110.37 L 4119.87 3110.78 L 4119.87 3111.19 L 4119.66 3111.6 L 4119.46 3111.8 L 4118.84 3112 L 4117 3112 M 4118.43 3112 L 4119.87 3114.25 M 4121.22 3110.78 L 4121.63 3110.57 L 4122.24 3109.96 L 4122.24 3114.25" fill="none"  stroke-width="0.6" c_note="note_pre" /></g><path d="M 4129.5512 3081.5197 A 2.5 2.5 0 0 0 4129.5512 3076.5197" locked="0"  fill="none" stroke-width="0.7874" c_helper_type="arc2" net="" layerid="3" id="gge228" /><path d="M 4128.39 3094 A 0.4921 0.4921 0 1 0 4128.39 3093.99" locked="0"  fill="none" stroke-width="0.98425" c_helper_type="arc2" net="" layerid="3" id="gge231" /><path d="M 4131.48 3085.5 A 1.1811 1.1811 0 1 0 4131.48 3085.48" locked="0"  fill="none" stroke-width="2.3622" c_helper_type="arc2" net="" layerid="3" id="gge234" /><path d="M 4112.4665 3135.9031 A 1.2198 1.2198 0 0 1 4113.6863 3134.6833" locked="0"  fill="none" stroke-width="1" c_helper_type="arc2" net="" layerid="3" id="gge612" /><path d="M 4113.6863 3140.2725 A 1.2198 1.2198 0 0 1 4112.4665 3139.0526" locked="0"  fill="none" stroke-width="1" c_helper_type="arc2" net="" layerid="3" id="gge615" /><path d="M 4122.2527 3134.7062 A 1.2198 1.2198 0 0 1 4123.4725 3135.9261" locked="0"  fill="none" stroke-width="1" c_helper_type="arc2" net="" layerid="3" id="gge618" /><path d="M 4123.4725 3139.0756 A 1.2198 1.2198 0 0 1 4122.2527 3140.2954" locked="0"  fill="none" stroke-width="1" c_helper_type="arc2" net="" layerid="3" id="gge621" /><circle cx="4087.492" cy="3080.4935" r="17.709" stroke-width="1" fill="none" layerid="3" id="gge135" locked="0"  /><circle cx="4087.5" cy="3080.4995" r="16" stroke-width="1" fill="none" layerid="3" id="gge138" locked="0"  /><polyline points="4047.56 3046.35 4179 3046.35 4179 3147.5 4047.56 3147.5 4047.56 3046.35" stroke-width="1"  stroke-linecap="round" fill="none" layerid="10" net="" id="gge534" locked="0" /></svg>